PathFileType	4	(X/Y/Z)	s02c0303.trc
DataRate	CameraRate	NumFrames	NumMarkers	Units	OrigDataRate	OrigDataStartFrame	OrigNumFrames
200	200	4	50	mm	200	750	2000
Frame#	Time	racr			lacr			c7			jug			rlel			rdr			llel			ldr			s2			lic			ric			lasi			rasi			rpsi			lpsi			rgt			lgt			rth1			rth2			rth3			rth4			rlfc			rmfc			rsh1			rsh2			rsh3			rsh4			rlmal			rmmal			rtoe			rmt5			rmt1			lth1			lth2			lth4			lth3			llfc			lmfc			lsh1			lsh2			lsh3			lsh4			llmal			lmmal			lcal			ltoe			lmt5			SBIKE			LBIKE			RBIKE			
		X1	Y1	Z1	X2	Y2	Z2	X3	Y3	Z3	X4	Y4	Z4	X5	Y5	Z5	X6	Y6	Z6	X7	Y7	Z7	X8	Y8	Z8	X9	Y9	Z9	X10	Y10	Z10	X11	Y11	Z11	X12	Y12	Z12	X13	Y13	Z13	X14	Y14	Z14	X15	Y15	Z15	X16	Y16	Z16	X17	Y17	Z17	X18	Y18	Z18	X19	Y19	Z19	X20	Y20	Z20	X21	Y21	Z21	X22	Y22	Z22	X23	Y23	Z23	X24	Y24	Z24	X25	Y25	Z25	X26	Y26	Z26	X27	Y27	Z27	X28	Y28	Z28	X29	Y29	Z29	X30	Y30	Z30	X31	Y31	Z31	X32	Y32	Z32	X33	Y33	Z33	X34	Y34	Z34	X35	Y35	Z35	X36	Y36	Z36	X37	Y37	Z37	X38	Y38	Z38	X39	Y39	Z39	X40	Y40	Z40	X41	Y41	Z41	X42	Y42	Z42	X43	Y43	Z43	X44	Y44	Z44	X45	Y45	Z45	X46	Y46	Z46	X47	Y47	Z47	X48	Y48	Z48	X49	Y49	Z49	X50	Y50	Z50	
750	3.7500	696.026206	1253.234790	-85.466978	761.541014	1225.925536	-418.753253	729.282101	1273.146032	-261.080582	643.020855	1155.800561	-257.346213	583.875725	1002.534570	-46.034196	720.890033	857.393641	-121.755017	639.218885	1035.647872	-603.151451	725.844163	848.097208	-528.203699	193.905626	1219.011857	-355.752816	332.482635	1166.719648	-482.031122	290.874846	1198.199429	-192.329645	360.539006	1123.069651	-445.074920	342.609313	1170.759901	-220.859837	208.477280	1254.207363	-320.861763	235.190654	1249.369081	-404.402379	262.985796	1127.219363	-153.947044	256.883156	1082.589171	-508.524731	341.397634	1080.999477	-143.629473	421.236061	1043.266113	-140.759649	471.855356	980.742191	-110.805429	441.901528	1062.900571	-165.642661	563.236337	859.121549	-134.927451	560.664662	841.022482	-247.151900	528.289511	750.744563	-122.118738	497.813455	668.557213	-143.389799	435.959824	609.316608	-141.199915	509.314759	664.558294	-181.650085	360.461741	515.813776	-148.614500	371.811551	533.117132	-230.447803	554.376517	415.944509	-192.784342	446.183101	420.628304	-129.427450	473.301610	432.142230	-237.418961	326.489780	961.051095	-519.700764	372.044555	886.471502	-515.815433	403.299228	896.394692	-499.142733	372.535451	797.329775	-514.750580	395.218119	697.271799	-500.114025	390.060426	667.132993	-399.631973	338.918055	607.548826	-521.352479	306.630490	528.963790	-504.948244	236.207789	472.438875	-507.579114	323.404465	520.641560	-468.163626	160.390408	390.673942	-493.331126	176.407852	378.113510	-416.992159	85.380949	401.731353	-448.144345	250.776299	166.902756	-439.751851	167.368072	232.136220	-505.105061	-128.398597	870.049372	-311.908787	32.488399	83.623574	-514.902652	32.851323	82.526638	-114.860909	
751	3.7550	695.991680	1251.130332	-84.097445	761.850569	1226.440597	-418.192391	729.767334	1272.370630	-259.926659	642.288418	1155.869432	-257.388326	582.177370	1000.974623	-47.423267	720.669365	857.521944	-122.339314	639.732715	1036.045219	-602.685296	725.783716	847.868804	-528.332591	194.055016	1220.040383	-354.842394	332.691311	1168.459908	-481.532787	291.109199	1196.579183	-191.610276	360.741440	1124.414428	-445.263761	342.972931	1169.293597	-220.274186	208.323557	1256.059266	-318.914512	234.144365	1251.937665	-402.094311	262.834683	1124.802825	-154.071228	258.323816	1084.284184	-509.506637	341.313354	1077.179772	-143.404837	420.266130	1037.518532	-140.417286	469.372140	973.696348	-110.813572	441.408513	1056.815632	-165.339985	557.233089	849.732516	-135.279375	554.892279	831.776537	-246.698567	523.449835	739.901392	-122.257642	495.067599	657.239333	-144.231156	434.609589	596.262323	-142.275650	506.267922	653.903641	-182.683996	361.891141	502.991462	-150.345751	372.984980	520.680888	-231.411178	558.507254	408.499915	-191.458209	449.526428	410.510336	-129.350899	477.390712	422.989244	-237.055369	330.429231	963.529719	-519.147316	377.243090	889.920048	-515.883082	408.217623	900.309800	-499.209295	379.458058	800.861209	-515.335598	403.038606	700.827262	-501.706669	397.547523	670.406805	-400.403546	344.518041	611.847355	-522.521911	309.638073	534.311252	-505.954780	237.257718	480.342542	-508.612919	326.167887	525.386949	-469.420521	158.451659	400.315562	-494.352813	174.368984	387.670336	-417.910802	83.441435	412.447325	-448.609661	245.349094	175.248886	-439.731288	162.740100	241.336019	-505.185683	-128.269035	870.078168	-311.865298	32.497037	83.636212	-514.898438	32.880413	82.511034	-114.854575	
752	3.7600	696.329773	1249.135313	-82.945215	762.148563	1227.220964	-417.730881	730.351844	1271.725194	-258.972657	641.931715	1155.889826	-257.477345	580.843499	999.646271	-48.613995	720.495716	857.525134	-122.832428	640.411812	1036.414324	-602.119630	725.775821	847.590696	-528.568982	194.289940	1220.495331	-353.658160	332.973564	1169.826282	-480.717600	291.276111	1194.647060	-190.874468	361.138032	1125.621450	-445.504999	343.201820	1167.462064	-219.792873	210.502254	1256.443635	-318.693242	234.744558	1253.609000	-400.435387	262.674399	1122.043599	-154.110046	259.992492	1085.667405	-510.416682	341.339339	1073.077129	-143.177506	419.367906	1031.707131	-140.207203	466.914754	966.580029	-110.856901	441.456098	1051.200016	-164.486663	550.950774	839.531990	-135.950207	549.220208	822.303389	-246.496477	518.271716	729.051208	-122.268229	492.551669	646.218783	-145.053999	433.844104	583.554077	-143.550176	505.908386	643.698772	-182.463270	363.244028	490.910645	-151.209279	374.231297	508.456886	-232.405460	562.046083	400.260505	-190.805596	452.981278	400.214332	-129.521445	480.824812	413.632778	-237.159088	334.442673	965.949289	-519.175612	382.544131	893.257273	-515.987315	413.260254	904.120140	-499.234713	386.440417	804.254404	-516.017451	410.542890	703.923899	-502.604589	404.974139	673.636288	-401.349852	350.317602	615.853777	-523.720620	312.948657	539.689349	-507.104482	238.848833	488.001392	-509.452347	329.132131	530.169590	-470.382241	157.285483	410.035820	-495.341381	173.046104	397.369632	-418.760291	82.943153	423.466601	-449.631227	240.435031	183.420262	-439.818870	158.738043	250.704751	-505.324002	-128.165307	870.062367	-311.924431	32.526137	83.556082	-514.942303	32.883455	82.486941	-114.872360	
753	3.7650	696.984220	1247.301135	-82.083827	762.371062	1228.091899	-417.465270	731.081027	1271.089363	-258.158343	641.530175	1156.088384	-257.558573	579.794504	998.458744	-49.607519	720.360459	857.608317	-123.170911	641.181539	1036.742616	-601.648940	725.838928	847.268907	-528.938056	194.629063	1220.378352	-352.552343	333.156693	1171.100021	-480.185421	292.177503	1192.508689	-189.157146	361.395728	1126.531909	-445.437797	342.711993	1165.391034	-219.760971	209.833389	1256.831188	-316.145145	235.009592	1254.617970	-398.387736	262.417322	1118.905499	-154.144737	261.667454	1086.652462	-511.293086	341.460683	1068.801974	-142.983481	418.470188	1025.661524	-140.111446	464.544664	959.402054	-110.901455	440.992758	1044.803029	-164.308358	544.880570	830.140034	-136.646345	543.629210	813.447799	-246.803845	513.706123	719.493151	-122.832407	489.830299	635.668229	-146.443884	433.337899	571.615962	-144.706015	502.906103	634.521950	-183.468896	364.530904	479.518554	-151.798297	375.753608	496.689033	-233.448311	565.268851	391.334971	-191.236557	456.259659	389.888435	-129.791387	483.815563	403.724821	-237.800295	338.486737	968.258043	-519.208410	387.877043	896.403399	-516.166459	418.263594	907.688292	-499.290248	393.420501	807.558621	-516.757890	418.102568	707.449256	-503.981418	412.437533	676.663280	-402.503294	356.058003	620.150218	-524.839177	316.651391	545.018685	-508.193425	241.001210	495.540701	-510.438526	332.647671	534.943880	-471.567735	157.007555	419.637646	-496.348035	172.886284	406.800039	-419.680765	82.935324	434.334775	-450.072521	235.986945	191.726560	-439.937919	155.509736	260.164394	-505.449395	-128.116874	870.024440	-312.069957	32.553931	83.430292	-514.986883	32.902336	82.474950	-114.881345	
